<?xml version="1.0" encoding="UTF-8"?>
<svg width="394px" height="116px" viewBox="0 0 394 116" version="1.1" xmlns="http://www.w3.org/2000/svg" xmlns:xlink="http://www.w3.org/1999/xlink">
    <!-- Generator: Sketch 51.2 (57519) - http://www.bohemiancoding.com/sketch -->
    <title>Cade-Martin-Logo</title>
    <desc>Created with Sketch.</desc>
    <defs>
        <polygon id="path-1" points="0.174133333 0.90496 32.297837 0.90496 32.297837 31.757696 0.174133333 31.757696"></polygon>
        <polygon id="path-3" points="0.0315851852 0.90496 32.1540296 0.90496 32.1540296 31.757696 0.0315851852 31.757696"></polygon>
        <polygon id="path-5" points="0.259236364 0.386375 25.9945455 0.386375 25.9945455 29.972625 0.259236364 29.972625"></polygon>
    </defs>
    <g id="Symbols" stroke="none" stroke-width="1" fill="none" fill-rule="evenodd">
        <g id="Header" transform="translate(-604.000000, -63.000000)">
            <g id="Cade-Martin-Logo" transform="translate(600.000000, 60.000000)">
                <g id="Cade-Martin-Logo-mark" transform="translate(4.000000, 3.000000)" fill="#292926">
                    <path d="M60.9598758,111.755494 L60.9598758,34.5737552 C61.1262044,33.5380699 61.6459812,32.8914107 62.4841215,32.4289592 L62.3996577,32 C62.0514072,32.046374 58.8287906,32.1043414 57.9633621,32.1043414 L57.965961,32.1094941 L57.886695,32.1094941 L42.6585319,50.668098 L27.1912716,32.1094941 L27.080819,32.1094941 L27.0834178,32.1043414 C26.2179894,32.1043414 22.9953727,32.046374 22.6471222,32 L22.5626585,32.4289592 C23.4150925,32.8991397 23.9400672,33.5561042 24.0972997,34.6227055 L24.0972997,91.7167876 C24.0713109,93.6928338 23.5788223,94.8225552 22,95.4653499 L22.1416392,95.9368185 C23.2838489,95.8440706 24.3766798,95.8440706 25.5188895,95.8440706 C26.8027383,95.8440706 27.8020094,95.8440706 29.0364795,95.9368185 L29.1794181,95.4189759 C27.0535307,94.5404469 26.9196881,93.7520894 26.9118915,91.8971308 L26.9118915,36.165928 L42.6780236,55.0787775 L58.145284,36.204573 L58.145284,111.724578 C58.145284,113.842322 58.1024024,114.541796 55.8205819,115.483446 L55.9635205,116 C57.1979906,115.90854 58.1972617,115.90854 59.4811105,115.90854 C60.6233202,115.90854 61.7161511,115.90854 62.8583608,116 L63,115.52982 C61.3873922,114.872855 61.0417406,113.848763 60.9598758,111.755494" id="Fill-1"></path>
                    <path d="M73.6257736,62.6685658 C72.8079983,65.3627237 71.3817671,67.5252071 69.4679911,69.4589172 C62.1678194,76.3259524 52.358417,80.2291583 42.2161839,80.2291583 C20.4924853,80.2291583 2.81865932,62.8564411 2.81865932,41.5012781 C2.81865932,20.146115 20.4924853,2.77211974 42.2161839,2.77211974 C50.2990275,2.77211974 58.0399397,5.17615719 64.5730407,9.6161498 C68.4772999,12.3895476 71.271257,15.3418743 72.564876,19.602938 L73.9391024,19.582489 C73.6582766,18.0053586 72.4101617,13.5807028 72.1449373,12.2412922 C69.9815383,10.083921 68.8686359,8.90682455 65.2139997,6.6778818 L65.2074991,6.68682825 C58.4156742,2.33885621 50.4810443,0 42.2161839,0 C18.9375423,0 0,18.616273 0,41.5012781 C0,64.383727 18.9375423,83 42.2161839,83 C50.8489781,83 59.2542514,80.3582427 66.2683967,75.5859536 L66.2748973,75.593622 C69.9295335,73.3646793 71.0424359,72.1888608 73.2058349,70.0302116 C73.4710593,68.690801 74.7191742,64.2661452 75,62.6902929 L73.6257736,62.6685658" id="Fill-2"></path>
                </g>
                <g id="Group-24" transform="translate(95.000000, 32.000000)">
                    <path d="M24.6613596,29.4299379 C21.996462,30.9465514 18.570887,32 14.3404094,32 C6.68309325,32 0,27.0285283 0,17.4216311 C0,8.15203893 7.10639373,2 15.0593884,2 C19.205206,2 21.8701036,2.96912234 24.2393227,4.40140963 C24.2393227,5.53918443 24.4073793,7.52022151 24.5766995,8.61520389 L24.0700025,8.82539017 C21.4885014,5.4548582 18.8236037,3.89545226 14.7637099,3.89545226 C8.33333333,3.89545226 3.76421531,8.86818258 3.76421531,17.0427924 C3.76421531,25.6805672 8.79833207,30.1045477 15.2287086,30.1045477 C18.9929239,30.1045477 22.0394238,28.5451418 24.4920394,25.0059574 L25,25.2161436 C24.8306798,26.311126 24.6613596,28.2921631 24.6613596,29.4299379" id="Fill-1" fill="#302D2B"></path>
                    <g id="Group-5" transform="translate(28.000000, 0.000000)">
                        <mask id="mask-2" fill="white">
                            <use xlink:href="#path-1"></use>
                        </mask>
                        <g id="Clip-4"></g>
                        <path d="M16.1100593,7.031936 L11.8525037,15.774336 L19.7782815,15.774336 L16.1100593,7.031936 Z M32.2147259,31.757696 C30.9907259,31.628416 29.9367259,31.671936 28.377763,31.671936 C26.9447259,31.671936 25.3001333,31.671936 23.9514667,31.757696 L23.8242815,31.328896 C24.5836148,30.985856 25.1742074,30.214016 25.1742074,29.529216 C25.1742074,28.757376 24.9626519,27.943296 24.4148741,26.658176 L20.6207259,17.702016 L10.9244296,17.702016 L6.87717037,26.100096 C6.24502222,27.430016 5.99191111,28.286336 5.99191111,29.186176 C5.99191111,30.343296 6.53968889,30.728576 7.6365037,31.328896 L7.50931852,31.757696 C6.07628148,31.714176 4.89635556,31.671936 3.46331852,31.671936 C2.19776296,31.671936 1.48124444,31.671936 0.258503704,31.757696 L0.174133333,31.243136 C1.64998519,30.728576 2.70398519,29.742976 3.79954074,27.514496 L15.0132444,4.845696 C15.899763,3.047296 16.2788,1.932416 16.2788,0.904576 L16.9953185,0.904576 L28.7568,27.771776 C29.5576889,29.614976 30.5701333,30.728576 32.297837,31.328896 L32.2147259,31.757696 Z" id="Fill-3" fill="#302D2B" mask="url(#mask-2)"></path>
                    </g>
                    <path d="M74.3230247,3.95464546 C72.2584197,3.95464546 70.9685234,3.95464546 68.9463155,4.03968523 L68.9463155,29.875275 C70.9248417,30.0022 73.2476828,30.0453545 75.268606,30.0453545 C83.5707075,30.0453545 88.1727081,25.1587409 88.1727081,16.786766 C88.1727081,8.96945338 82.7536019,3.95464546 74.3230247,3.95464546 M74.9679728,31.9568455 C72.3881802,31.9568455 70.3235753,31.8718057 68.6880793,31.8718057 C67.1836285,31.8718057 66.2804442,31.9149602 64.2158392,32 L64.0436817,31.6166864 C64.9031844,31.0645625 65.4196568,30.2992046 65.4196568,28.769758 L65.4196568,5.06016246 C65.4196568,3.69952615 64.9892631,2.89228296 64,2.42519885 L64.1721575,2 C65.9785262,2.08503977 66.9677893,2.12819428 68.0007341,2.12819428 C70.7526842,2.12819428 72.6888134,2.04315451 74.8394971,2.04315451 C84.4738919,2.04315451 92,7.69385683 92,16.7017262 C92,26.3048739 84.7745251,31.9568455 74.9679728,31.9568455" id="Fill-6" fill="#302D2B"></path>
                    <path d="M116.40794,31.958113 C112.936454,31.8730696 110.929014,31.8730696 107.457528,31.8730696 C103.234032,31.8730696 100.390886,31.8730696 96.2086139,32 L96.0412231,31.6610958 C97.0030958,31.0657923 97.3803498,30.1734715 97.3803498,28.6008039 L97.3803498,5.22910937 C97.3803498,3.78464142 97.1280143,2.97736408 96,2.46710387 L96.1249185,2.04315634 C100.223496,2.2551301 101.728764,2.21197377 105.827341,2.21197377 C109.591136,2.21197377 113.146318,2.21197377 116.908864,2 C116.490387,2.72223398 115.905768,3.99661519 115.612209,4.8889359 C115.152509,4.37867569 114.233109,4.16670193 111.514882,4.16670193 L100.809363,4.16670193 L100.809363,14.0253861 L105.367641,14.0253861 C108.4194,14.0253861 110.135781,13.9403427 111.096405,13.3881955 L111.347491,13.6014385 C110.887791,14.1535858 110.25945,15.5980537 109.967141,16.4903744 C109.213882,16.0651576 107.624919,15.9801142 105.367641,15.9801142 L100.809363,15.9801142 L100.809363,29.9183414 L109.925918,29.9183414 C115.362372,29.9183414 116.993808,28.9828644 118.623995,27.3264227 L119,27.6234398 C117.954432,28.9409774 116.908864,30.7687751 116.40794,31.958113" id="Fill-8" fill="#302D2B"></path>
                    <path d="M170.872579,32 C169.690464,31.9565976 168.549981,31.9144717 167.367866,31.9144717 C165.930909,31.9144717 164.748794,31.9144717 163.354731,32 L163.271466,31.5289562 C164.748794,30.9736607 165.297588,29.9485979 165.128534,28.239309 L163.608312,6.23045828 L153.429759,26.2734352 L153.050019,26.2734352 L142.785677,6.40151483 L141.307087,28.1537807 C141.139295,30.0762521 141.351243,30.67495 143.377365,31.5289562 L143.249944,32 C142.152356,31.9144717 141.265455,31.9144717 140.126234,31.9144717 C139.111911,31.9144717 138.140482,31.9144717 137.127421,32 L137,31.5723586 C138.435696,30.9736607 138.85833,30.290711 139.027384,28.409089 L140.547607,5.97387345 C140.717922,4.05012553 140.167866,3.06718863 139.027384,2.42636484 L139.111911,2 C139.450019,2.04212587 140.547607,2.08425173 141.392876,2.08425173 C142.871466,2.08425173 144.053581,2.04212587 144.728534,2.04212587 C144.940482,3.02506276 145.615436,4.4777669 147.644082,8.49504276 L153.978553,20.8877069 L160.017811,8.75162759 C161.792876,5.24624484 162.848831,2.93953449 163.016623,2.04212587 C163.608312,2.08425173 164.748794,2.08425173 165.720223,2.08425173 C166.860705,2.08425173 167.535659,2.08425173 168.508349,2 L168.634508,2.46976724 C167.409499,2.89613208 166.903599,3.92247138 167.071391,5.50410621 L168.591614,27.9393217 C168.760668,30.0762521 169.224935,30.8038807 171,31.5289562 L170.872579,32 Z" id="Fill-10" fill="#302D2B"></path>
                    <g id="Group-14" transform="translate(173.000000, 0.000000)">
                        <mask id="mask-4" fill="white">
                            <use xlink:href="#path-3"></use>
                        </mask>
                        <g id="Clip-13"></g>
                        <path d="M15.9662519,7.031936 L11.707437,15.774336 L19.6332148,15.774336 L15.9662519,7.031936 Z M32.0696593,31.757696 C30.8469185,31.628416 29.7929185,31.671936 28.2339556,31.671936 C26.8009185,31.671936 25.1563259,31.671936 23.8076593,31.757696 L23.6804741,31.328896 C24.4398074,30.985856 25.0291407,30.214016 25.0291407,29.529216 C25.0291407,28.757376 24.8188444,27.943296 24.2710667,26.658176 L20.4769185,17.702016 L10.7806222,17.702016 L6.73336296,26.100096 C6.10121481,27.430016 5.8481037,28.286336 5.8481037,29.186176 C5.8481037,30.343296 6.39588148,30.728576 7.4926963,31.328896 L7.36551111,31.757696 C5.93247407,31.714176 4.75254815,31.671936 3.31825185,31.671936 C2.05395556,31.671936 1.33743704,31.671936 0.114696296,31.757696 L0.0315851852,31.243136 C1.50617778,30.728576 2.56017778,29.742976 3.65699259,27.514496 L14.8706963,4.845696 C15.7546963,3.047296 16.1349926,1.932416 16.1349926,0.904576 L16.8515111,0.904576 L28.6129926,27.771776 C29.4151407,29.614976 30.4250667,30.728576 32.1540296,31.328896 L32.0696593,31.757696 Z" id="Fill-12" fill="#302D2B" mask="url(#mask-4)"></path>
                    </g>
                    <path d="M220.945997,3.950136 C218.27206,3.950136 216.350519,3.99192463 213.928628,4.03497958 L213.928628,14.8025162 C215.932521,14.8025162 217.812887,14.8455712 219.901627,14.8455712 C223.995508,14.8455712 227.420593,13.0651223 227.420593,9.16485033 C227.420593,5.56089769 225.3331,3.950136 220.945997,3.950136 Z M233.873977,31.9295224 C224.298712,33.2110403 221.376472,16.5892967 218.481683,16.7526522 L213.928628,16.7526522 L213.928628,28.2837811 C213.928628,30.021175 214.428978,30.7429786 215.724147,31.2938287 L215.515772,31.7598352 C214.179427,31.633203 213.510631,31.6749916 212.341485,31.6749916 C211.171092,31.6749916 210.462368,31.6749916 209.249551,31.7598352 L209.082352,31.3786722 C210.085546,30.9126657 210.503544,30.021175 210.503544,28.6231554 L210.503544,5.05183621 C210.503544,4.11982316 210.169146,3.01685663 209,2.38116295 L209.124775,2 C211.213516,2.08484358 212.800659,2.08484358 214.889399,2.08484358 C217.102915,2.08484358 219.609653,2.04178863 221.781992,2.04178863 C226.87782,2.04178863 231.096476,4.20466674 231.096476,8.86726464 C231.096476,13.3614417 227.726293,15.76872 222.963615,16.4892572 C225.350569,19.0978807 229.028948,30.4453929 234,31.2938287 L233.873977,31.9295224 Z" id="Fill-15" fill="#302D2B"></path>
                    <path d="M259.625228,5.29078376 L259.195211,5.29078376 C258.937201,4.64998724 258.422464,4.05131478 255.801284,4.05131478 L249.653962,4.05131478 L249.653962,28.4092418 C249.653962,30.1197345 250.083979,30.9315803 251.630758,31.5289763 L251.546038,32 C250.513997,31.9131989 249.181585,31.9131989 248.107183,31.9131989 C247.077709,31.9131989 245.61565,31.9565994 244.627253,32 L244.541249,31.5289763 C245.65801,31.0171049 246.130388,30.2473832 246.130388,28.6658157 L246.130388,4.05131478 L241.189682,4.05131478 C237.666107,4.05131478 236.504419,4.5644626 235.345297,5.3763084 L235,5.11973449 L236.377339,2 C240.888028,2.04340056 243.466848,2.08552464 247.97882,2.08552464 C253.050457,2.08552464 255.972007,2.04340056 261,2 L259.625228,5.29078376 Z" id="Fill-17" fill="#302D2B"></path>
                    <path d="M270.873547,32 C269.825613,31.9144717 268.609909,31.9144717 267.561975,31.9144717 C266.347523,31.9144717 265.173135,31.9144717 264.083885,32 L264,31.5723586 C265.214452,31.0170631 265.801646,30.4183652 265.801646,28.9222586 L265.801646,5.24624484 C265.801646,3.58035828 265.299589,2.85400621 264.210338,2.42636484 L264.378108,2 C265.42479,2.08425173 266.431408,2.08425173 267.479342,2.08425173 C268.527276,2.08425173 269.825613,2.08425173 270.790914,2 L270.957432,2.38423897 C269.909497,2.8106038 269.238419,3.58035828 269.238419,4.94881069 L269.238419,28.8801328 C269.238419,30.3762393 269.868181,31.0170631 271,31.5723586 L270.873547,32 Z" id="Fill-19" fill="#302D2B"></path>
                    <g id="Group-23" transform="translate(277.000000, 2.000000)">
                        <mask id="mask-6" fill="white">
                            <use xlink:href="#path-5"></use>
                        </mask>
                        <g id="Clip-22"></g>
                        <path d="M24.4614182,3.357625 L24.4614182,29.888875 L24.0350545,29.972625 C23.2688727,28.507625 21.7772364,26.623875 19.6046909,23.821375 L4.34978182,4.320125 L4.34978182,26.080125 C4.34978182,27.880125 4.98869091,28.758875 6.43832727,29.386375 L6.30978182,29.763875 C5.5016,29.721375 4.52032727,29.678875 3.5836,29.678875 C2.60232727,29.678875 1.75087273,29.678875 0.814145455,29.763875 L0.6856,29.345125 C1.45305455,28.926375 2.04996364,28.172625 2.04996364,26.958875 L2.04996364,3.817625 C2.04996364,2.352625 1.32450909,1.140125 0.259236364,0.762625 L0.387781818,0.386375 C1.02669091,0.470125 2.17723636,0.470125 3.28450909,0.470125 C4.17923636,0.470125 4.69087273,0.470125 5.79941818,0.386375 C6.09723636,1.097625 7.41705455,2.855125 10.1445091,6.328875 L22.1603273,21.728875 L22.1603273,3.273875 C22.1603273,1.850125 21.6066909,1.140125 20.6699636,0.762625 L20.7972364,0.386375 C21.7339636,0.470125 22.6299636,0.470125 23.5666909,0.470125 C24.3761455,0.470125 25.1003273,0.470125 25.8665091,0.386375 L25.9950545,0.762625 C24.9297818,1.306375 24.4614182,1.976375 24.4614182,3.357625" id="Fill-21" fill="#302D2B" mask="url(#mask-6)"></path>
                    </g>
                </g>
            </g>
        </g>
    </g>
</svg>